<svg width="374" height="247" viewBox="0 0 374 247" fill="none" xmlns="http://www.w3.org/2000/svg">
<g opacity="0.3">
<path d="M61.5436 247C49.1908 247 38.382 244.903 29.1174 240.709C19.8528 236.294 12.6837 229.672 7.61023 220.843C2.53674 212.014 0 200.867 0 187.402V61.2533C0 47.7887 2.53674 36.5313 7.61023 27.4812C12.6837 18.4312 19.8528 11.5885 29.1174 6.95307C38.6026 2.31769 49.4114 0 61.5436 0H110.183C123.859 0 134.999 2.53843 143.602 7.61528C152.425 12.6921 158.933 19.7556 163.124 28.8056C167.535 37.8557 169.741 48.6716 169.741 61.2533V187.402C169.741 207.489 164.337 222.499 153.528 232.432C142.94 242.144 128.381 247 109.852 247H61.5436ZM68.4921 216.87H101.911C114.043 216.87 122.756 213.89 128.05 207.93C133.565 201.971 136.322 193.583 136.322 182.767V64.2332C136.322 52.3137 133.455 43.5947 127.72 38.0764C121.984 32.5581 113.823 29.7989 103.234 29.7989H67.4995C56.9113 29.7989 48.529 32.7788 42.3526 38.7386C36.1762 44.6984 33.088 53.1966 33.088 64.2332V182.767C33.088 194.245 36.1762 202.853 42.3526 208.592C48.7496 214.111 57.4628 216.87 68.4921 216.87Z" fill="url(#paint0_linear_252_1675)"/>
<path d="M210.215 246.007V219.188L297.567 134.095C305.949 126.149 312.677 118.754 317.75 111.912C322.824 105.069 326.464 98.2261 328.669 91.3834C331.096 84.3199 332.309 76.7047 332.309 68.5375C332.309 61.2534 330.875 54.8521 328.008 49.3338C325.361 43.5947 320.618 39.1801 313.78 36.0898C306.942 32.9996 297.236 31.4544 284.662 31.4544H217.825V5.62869C227.972 4.30429 239.222 3.09025 251.575 1.98659C264.148 0.662196 277.493 0 291.611 0C310.361 0 325.03 2.64879 335.618 7.94638C346.427 13.0232 354.037 20.4178 358.449 30.13C363.081 39.6215 365.397 50.8789 365.397 63.9021C365.397 75.1595 363.853 85.534 360.765 95.0255C357.897 104.296 353.375 113.346 347.199 122.176C341.022 130.784 333.081 139.834 323.375 149.326L254.883 215.546H374V246.007H210.215Z" fill="url(#paint1_linear_252_1675)"/>
</g>
<defs>
<linearGradient id="paint0_linear_252_1675" x1="187" y1="0" x2="187" y2="247" gradientUnits="userSpaceOnUse">
<stop stop-color="white"/>
<stop offset="1" stop-color="white" stop-opacity="0"/>
</linearGradient>
<linearGradient id="paint1_linear_252_1675" x1="187" y1="0" x2="187" y2="247" gradientUnits="userSpaceOnUse">
<stop stop-color="white"/>
<stop offset="1" stop-color="white" stop-opacity="0"/>
</linearGradient>
</defs>
</svg>
