<svg width="382" height="260" viewBox="0 0 382 260" fill="none" xmlns="http://www.w3.org/2000/svg">
<g opacity="0.3">
<path d="M64.3983 258.463C51.4725 258.463 40.1624 256.273 30.468 251.894C20.7737 247.285 13.2721 240.37 7.96324 231.151C2.65441 221.932 0 210.293 0 196.234V64.5154C0 50.4562 2.65441 38.7018 7.96324 29.2522C13.2721 19.8026 20.7737 12.6577 30.468 7.81767C40.3932 2.97764 51.7033 0.557618 64.3983 0.557618H115.294C129.605 0.557618 141.261 3.20812 150.263 8.50912C159.496 13.8101 166.305 21.1854 170.69 30.635C175.307 40.0847 177.615 51.3781 177.615 64.5154V196.234C177.615 217.207 171.96 232.88 160.65 243.251C149.57 253.392 134.336 258.463 114.948 258.463H64.3983ZM71.6691 227.003H106.638C119.333 227.003 128.45 223.891 133.99 217.668C139.761 211.445 142.646 202.687 142.646 191.394V67.6268C142.646 55.181 139.645 46.0771 133.644 40.3151C127.643 34.5532 119.102 31.6722 108.023 31.6722H70.6304C59.5512 31.6722 50.7801 34.7836 44.3171 41.0066C37.8542 47.2295 34.6228 56.1029 34.6228 67.6268V191.394C34.6228 203.379 37.8542 212.367 44.3171 218.36C51.0109 224.122 60.1282 227.003 71.6691 227.003Z" fill="url(#paint0_linear_252_1681)"/>
<path d="M310.677 259.5C292.212 259.5 274.9 259.039 258.743 258.117C242.816 257.195 228.737 255.928 216.503 254.314V227.003H298.213C308.138 227.003 316.678 226.081 323.834 224.237C330.989 222.163 336.529 218.705 340.453 213.865C344.607 209.025 346.685 201.996 346.685 192.777V177.911C346.685 169.613 344.723 163.16 340.799 158.551C336.875 153.71 331.797 150.253 325.565 148.179C319.333 146.105 312.754 144.952 305.83 144.722L241.085 141.956V116.027L304.445 113.262C316.217 112.57 325.68 110.035 332.836 105.656C339.991 101.277 343.569 93.7861 343.569 83.1841V68.664C343.569 57.3705 339.645 48.7276 331.797 42.7351C324.18 36.5122 312.293 33.4008 296.136 33.4008H224.12V6.08909C235.43 4.47575 248.241 3.09288 262.551 1.94049C276.862 0.788101 292.558 0.327143 309.638 0.557618C324.872 0.557618 337.452 3.09288 347.377 8.16341C357.533 13.0034 365.15 20.033 370.228 29.2522C375.306 38.2408 377.845 48.9581 377.845 61.4039V82.1469C377.845 89.7527 376.691 96.3214 374.383 101.853C372.306 107.154 369.42 111.763 365.727 115.682C362.265 119.369 358.457 122.25 354.302 124.324C350.147 126.399 346.223 128.012 342.53 129.165C346.685 130.086 350.955 131.93 355.34 134.696C359.957 137.231 364.227 140.688 368.151 145.068C372.306 149.216 375.652 154.402 378.191 160.625C380.73 166.848 382 173.993 382 182.059V198.654C382 218.475 375.652 233.571 362.957 243.943C350.493 254.314 333.066 259.5 310.677 259.5Z" fill="url(#paint1_linear_252_1681)"/>
</g>
<defs>
<linearGradient id="paint0_linear_252_1681" x1="189.796" y1="4.1091" x2="189.796" y2="257.426" gradientUnits="userSpaceOnUse">
<stop stop-color="white"/>
<stop offset="1" stop-color="white" stop-opacity="0"/>
</linearGradient>
<linearGradient id="paint1_linear_252_1681" x1="189.796" y1="4.1091" x2="189.796" y2="257.426" gradientUnits="userSpaceOnUse">
<stop stop-color="white"/>
<stop offset="1" stop-color="white" stop-opacity="0"/>
</linearGradient>
</defs>
</svg>
