<svg width="378" height="326" viewBox="0 0 378 326" fill="none" xmlns="http://www.w3.org/2000/svg">
<g opacity="0.3">
<path d="M80.877 325.5C64.6436 325.5 50.4394 322.745 38.2644 317.234C26.0894 311.433 16.6682 302.731 10.0009 291.129C3.33364 279.527 0 264.88 0 247.187V81.4237C0 63.7307 3.33364 48.9382 10.0009 37.0462C16.6682 25.1542 26.0894 16.1626 38.2644 10.0716C50.7293 3.98058 64.9335 0.935068 80.877 0.935068H144.796C162.769 0.935068 177.408 4.27063 188.713 10.9418C200.308 17.6129 208.86 26.8945 214.367 38.7865C220.165 50.6785 223.064 64.8909 223.064 81.4237V247.187C223.064 273.581 215.962 293.305 201.758 306.357C187.843 319.119 168.711 325.5 144.361 325.5H80.877ZM90.0083 285.908H133.925C149.869 285.908 161.319 281.993 168.276 274.161C175.523 266.33 179.147 255.308 179.147 241.096V85.3393C179.147 69.6767 175.378 58.2198 167.841 50.9685C160.305 43.7173 149.579 40.0917 135.665 40.0917H88.7038C74.7895 40.0917 63.774 44.0073 55.6573 51.8387C47.5406 59.67 43.4822 70.8369 43.4822 85.3393V241.096C43.4822 256.178 47.5406 267.49 55.6573 275.031C64.0639 282.283 75.5142 285.908 90.0083 285.908Z" fill="url(#paint0_linear_252_1668)"/>
<path d="M334.083 324.195V43.1372L271.034 57.4946V29.6499L338.431 0.5H378V324.195H334.083Z" fill="url(#paint1_linear_252_1668)"/>
</g>
<defs>
<linearGradient id="paint0_linear_252_1668" x1="189" y1="0.5" x2="189" y2="325.5" gradientUnits="userSpaceOnUse">
<stop stop-color="white"/>
<stop offset="1" stop-color="white" stop-opacity="0"/>
</linearGradient>
<linearGradient id="paint1_linear_252_1668" x1="189" y1="0.5" x2="189" y2="325.5" gradientUnits="userSpaceOnUse">
<stop stop-color="white"/>
<stop offset="1" stop-color="white" stop-opacity="0"/>
</linearGradient>
</defs>
</svg>
