<svg width="360" height="1733" viewBox="0 0 360 1733" fill="none" xmlns="http://www.w3.org/2000/svg">
<g opacity="0.3">
<rect y="0.714573" width="147.188" height="147.188" transform="matrix(0.69956 0.714573 -0.69956 0.714573 -28.8334 0.203958)" stroke="white"/>
<rect y="0.714573" width="147.188" height="147.188" transform="matrix(0.69956 0.714573 -0.69956 0.714573 385.833 0.203958)" stroke="white"/>
<rect y="0.706391" width="145.459" height="145.459" transform="matrix(0.707822 0.706391 -0.707822 0.706391 178.5 58.6303)" stroke="white"/>
<rect y="0.706391" width="145.459" height="145.459" transform="matrix(0.707822 0.706391 -0.707822 0.706391 -28.8333 165.739)" stroke="white"/>
<rect y="0.706391" width="145.459" height="145.459" transform="matrix(0.707822 0.706391 -0.707822 0.706391 385.833 165.739)" stroke="white"/>
<rect y="0.706391" width="145.459" height="145.459" transform="matrix(0.707822 0.706391 -0.707822 0.706391 178.5 219.293)" stroke="white"/>
</g>
<g opacity="0.3">
<rect y="0.714573" width="147.188" height="147.188" transform="matrix(0.69956 0.714573 -0.69956 0.714573 -28.8334 651.204)" stroke="white"/>
<rect y="0.714573" width="147.188" height="147.188" transform="matrix(0.69956 0.714573 -0.69956 0.714573 385.833 651.204)" stroke="white"/>
<rect y="0.706391" width="145.459" height="145.459" transform="matrix(0.707822 0.706391 -0.707822 0.706391 178.5 709.63)" stroke="white"/>
<rect y="0.706391" width="145.459" height="145.459" transform="matrix(0.707822 0.706391 -0.707822 0.706391 -28.8333 816.739)" stroke="white"/>
<rect y="0.706391" width="145.459" height="145.459" transform="matrix(0.707822 0.706391 -0.707822 0.706391 385.833 816.739)" stroke="white"/>
<rect y="0.706391" width="145.459" height="145.459" transform="matrix(0.707822 0.706391 -0.707822 0.706391 178.5 870.293)" stroke="white"/>
</g>
<g opacity="0.3">
<rect y="0.714573" width="147.188" height="147.188" transform="matrix(0.69956 0.714573 -0.69956 0.714573 -28.8334 977.204)" stroke="white"/>
<rect y="0.714573" width="147.188" height="147.188" transform="matrix(0.69956 0.714573 -0.69956 0.714573 385.833 977.204)" stroke="white"/>
<rect y="0.706391" width="145.459" height="145.459" transform="matrix(0.707822 0.706391 -0.707822 0.706391 178.5 1035.63)" stroke="white"/>
<rect y="0.706391" width="145.459" height="145.459" transform="matrix(0.707822 0.706391 -0.707822 0.706391 -28.8333 1142.74)" stroke="white"/>
<rect y="0.706391" width="145.459" height="145.459" transform="matrix(0.707822 0.706391 -0.707822 0.706391 385.833 1142.74)" stroke="white"/>
<rect y="0.706391" width="145.459" height="145.459" transform="matrix(0.707822 0.706391 -0.707822 0.706391 178.5 1196.29)" stroke="white"/>
</g>
<g opacity="0.3">
<rect y="0.714573" width="147.188" height="147.188" transform="matrix(0.69956 0.714573 -0.69956 0.714573 -28.8334 1307.2)" stroke="white"/>
<rect y="0.714573" width="147.188" height="147.188" transform="matrix(0.69956 0.714573 -0.69956 0.714573 385.833 1307.2)" stroke="white"/>
<rect y="0.706391" width="145.459" height="145.459" transform="matrix(0.707822 0.706391 -0.707822 0.706391 178.5 1365.63)" stroke="white"/>
<rect y="0.706391" width="145.459" height="145.459" transform="matrix(0.707822 0.706391 -0.707822 0.706391 -28.8333 1472.74)" stroke="white"/>
<rect y="0.706391" width="145.459" height="145.459" transform="matrix(0.707822 0.706391 -0.707822 0.706391 385.833 1472.74)" stroke="white"/>
<rect y="0.706391" width="145.459" height="145.459" transform="matrix(0.707822 0.706391 -0.707822 0.706391 178.5 1526.29)" stroke="white"/>
</g>
<g opacity="0.3">
<rect y="0.714573" width="147.188" height="147.188" transform="matrix(0.69956 0.714573 -0.69956 0.714573 -28.8334 326.204)" stroke="white"/>
<rect y="0.714573" width="147.188" height="147.188" transform="matrix(0.69956 0.714573 -0.69956 0.714573 385.833 326.204)" stroke="white"/>
<rect y="0.706391" width="145.459" height="145.459" transform="matrix(0.707822 0.706391 -0.707822 0.706391 178.5 384.63)" stroke="white"/>
<rect y="0.706391" width="145.459" height="145.459" transform="matrix(0.707822 0.706391 -0.707822 0.706391 -28.8333 491.739)" stroke="white"/>
<rect y="0.706391" width="145.459" height="145.459" transform="matrix(0.707822 0.706391 -0.707822 0.706391 385.833 491.739)" stroke="white"/>
<rect y="0.706391" width="145.459" height="145.459" transform="matrix(0.707822 0.706391 -0.707822 0.706391 178.5 545.293)" stroke="white"/>
</g>
</svg>
