<svg width="235" height="31" viewBox="0 0 235 31" fill="none" xmlns="http://www.w3.org/2000/svg">
<path d="M10.619 3.73155C12.9732 3.73155 14.8245 4.21309 16.1728 5.17616C17.5211 6.13924 18.1952 7.61595 18.1952 9.6063C18.1952 10.869 17.9063 11.9605 17.3285 12.8808C16.7506 13.7796 15.9374 14.4859 14.8887 14.9995C13.8614 15.5132 12.6522 15.8021 11.2611 15.8663L10.7796 14.0686C12.4061 14.1114 13.8614 14.4003 15.1455 14.9353C16.4296 15.449 17.4462 16.1766 18.1952 17.1183C18.9657 18.0386 19.3509 19.1407 19.3509 20.4248C19.3509 21.6019 19.1262 22.6078 18.6768 23.4425C18.2487 24.2771 17.6602 24.962 16.9111 25.497C16.1835 26.0107 15.3488 26.3959 14.4071 26.6527C13.4869 26.8882 12.5238 27.0059 11.5179 27.0059H4.48747V3.73155H10.619ZM11.229 13.8117C12.4489 13.8117 13.3371 13.4693 13.8935 12.7845C14.4499 12.0782 14.7282 11.2542 14.7282 10.3126C14.7282 9.15687 14.3643 8.3115 13.6367 7.77646C12.9304 7.24142 11.978 6.9739 10.7796 6.9739H7.82613V13.8117H11.229ZM11.3574 23.8919C12.6201 23.8919 13.6902 23.6137 14.5677 23.0573C15.4451 22.5008 15.8839 21.634 15.8839 20.4569C15.8839 19.6009 15.6484 18.9267 15.1776 18.4345C14.7068 17.9423 14.1075 17.5891 13.3799 17.3751C12.6522 17.1611 11.9031 17.0541 11.1327 17.0541H7.82613V23.8919H11.3574Z" fill="white"/>
<rect x="46.3367" y="5.5954" width="13.4176" height="13.4176" transform="rotate(45 46.3367 5.5954)" stroke="white" stroke-width="3.00961"/>
<path d="M85.9946 8.12959C85.1814 7.70156 84.3039 7.33773 83.3622 7.0381C82.4206 6.73848 81.511 6.58867 80.6335 6.58867C79.4136 6.58867 78.4506 6.86689 77.7443 7.42334C77.0381 7.95838 76.6849 8.70743 76.6849 9.67051C76.6849 10.334 76.9203 10.9118 77.3912 11.404C77.862 11.8963 78.472 12.3243 79.221 12.6881C79.9701 13.052 80.7619 13.3944 81.5966 13.7154C82.5597 14.0579 83.4907 14.4966 84.3895 15.0316C85.2884 15.5453 86.0268 16.2408 86.6046 17.1183C87.1824 17.9958 87.4714 19.1728 87.4714 20.6496C87.4714 21.8695 87.161 22.9823 86.5404 23.9882C85.9197 24.9941 85.0316 25.7967 83.8759 26.3959C82.7416 26.9738 81.3719 27.2627 79.7668 27.2627C78.2686 27.2627 76.8454 27.0273 75.4971 26.5564C74.1702 26.0642 73.0252 25.4863 72.0622 24.8229L73.571 22.1584C74.32 22.7362 75.2403 23.2392 76.3318 23.6672C77.4233 24.0952 78.4613 24.3092 79.4457 24.3092C80.1734 24.3092 80.8797 24.1915 81.5645 23.9561C82.2494 23.6993 82.8165 23.3034 83.2659 22.7683C83.7368 22.2333 83.9722 21.527 83.9722 20.6496C83.9722 19.9219 83.7689 19.3013 83.3622 18.7876C82.9556 18.274 82.4206 17.8352 81.7571 17.4714C81.1151 17.1076 80.4195 16.7866 79.6705 16.5083C78.9428 16.2301 78.1937 15.9305 77.4233 15.6095C76.6742 15.267 75.9787 14.8497 75.3366 14.3575C74.716 13.8652 74.2023 13.266 73.7957 12.5597C73.4105 11.8321 73.2179 10.9546 73.2179 9.92733C73.2179 8.66463 73.5068 7.57315 74.0846 6.65288C74.6839 5.7326 75.5078 5.00495 76.5565 4.46991C77.6052 3.93486 78.8037 3.64594 80.152 3.60314C81.6929 3.60314 83.0412 3.79575 84.1969 4.18098C85.3526 4.54481 86.3692 4.99425 87.2466 5.52929L85.9946 8.12959Z" fill="white"/>
<path d="M103.731 3.73155H119.236V6.9739H113.072V27.0059H109.702V6.9739H103.731V3.73155Z" fill="white"/>
<path d="M143.296 3.73155C144.923 3.73155 146.367 4.02047 147.63 4.59832C148.893 5.15476 149.877 5.97872 150.584 7.07021C151.311 8.14029 151.675 9.46719 151.675 11.0509C151.675 11.9712 151.536 12.8808 151.258 13.7796C150.979 14.6785 150.53 15.4918 149.909 16.2194C149.31 16.9471 148.497 17.5356 147.47 17.9851C146.464 18.4131 145.222 18.6271 143.746 18.6271H140.311V27.0059H136.972V3.73155H143.296ZM143.682 15.3848C144.88 15.3848 145.8 15.16 146.442 14.7106C147.106 14.2398 147.566 13.6833 147.823 13.0413C148.08 12.3778 148.208 11.7572 148.208 11.1793C148.208 10.7513 148.133 10.3019 147.983 9.83102C147.833 9.33878 147.587 8.87865 147.245 8.45062C146.924 8.00118 146.485 7.64805 145.929 7.39123C145.372 7.11301 144.687 6.9739 143.874 6.9739H140.311V15.3848H143.682ZM147.598 17.3751L153.633 27.0059H149.717L143.585 17.4393L147.598 17.3751Z" fill="white"/>
<rect x="179.821" y="5.5954" width="13.4176" height="13.4176" transform="rotate(45 179.821 5.5954)" stroke="white" stroke-width="3.00961"/>
<path d="M207.377 27.0059V2.96109H207.409L219.736 20.4569L218.292 20.168L230.587 2.96109H230.651V27.0059H227.313V10.5694L227.505 12.2708L218.902 24.5019H218.837L210.041 12.2708L210.619 10.6978V27.0059H207.377Z" fill="white"/>
</svg>
